#!OML:ASF F:\VICON\USERDATA\INSTALL\rory3\rory3.ASF
:FULLY-SPECIFIED
:DEGREES
278
root 0.0799163 17.8611 24.8063 -4.36633 3.07743 -3.33209
lowerback 9.07385 -1.29356 0.809015
upperback 0.799939 -1.50895 2.87956
thorax -4.20067 -0.738259 2.7284
lowerneck -15.3923 -2.53595 -2.19317
upperneck 22.0355 -2.84808 -0.556789
head 9.52823 -1.574 -0.186579
rclavicle 1.78533e-014 2.78299e-015
rhumerus -33.2033 -25.5411 -73.8899
rradius 21.4552
rwrist 11.6077
rhand -17.7585 23.3811
rfingers 7.12502
rthumb 8.50343 -6.42772
lclavicle 1.78533e-014 2.78299e-015
lhumerus -25.9984 1.57042 83.4118
lradius 25.9836
lwrist 5.77559
lhand -31.0782 16.6861
lfingers 7.12502
lthumb -4.3587 46.6213
rfemur -20.2794 2.94769 28.0855
rtibia 32.9157
rfoot -6.07565 -5.60005
rtoes 10.2577
lfemur -1.27371 -0.0726837 -15.7745
ltibia 62.1718
lfoot 23.0101 -20.8828
ltoes 1.31175
279
root 0.0791523 17.8757 24.9765 -4.41917 2.74794 -3.6601
lowerback 9.1478 -1.18611 1.17667
upperback 0.890664 -1.32586 2.95308
thorax -4.16157 -0.653707 2.57529
lowerneck -15.5414 -2.54838 -2.10203
upperneck 21.9975 -2.88828 -0.542684
head 9.54152 -1.58294 -0.203725
rclavicle -5.20567e-015 1.31198e-014
rhumerus -32.5144 -25.6288 -74.1655
rradius 21.4272
rwrist 11.694
rhand -17.4981 23.2803
rfingers 7.12502
rthumb 8.75471 -6.51817
lclavicle -5.20567e-015 1.31198e-014
lhumerus -25.8843 2.10847 83.4742
lradius 25.3647
lwrist 4.92759
lhand -30.9077 17.109
lfingers 7.12502
lthumb -4.19402 47.0475
rfemur -19.601 3.38798 28.5755
rtibia 32.9797
rfoot -6.56564 -5.81916
rtoes 10.7599
lfemur -2.69154 0.317295 -15.2659
ltibia 63.98
lfoot 22.7258 -20.169
ltoes 2.92883
280
root 0.0760453 17.8882 25.1525 -4.50133 2.27577 -4.02746
lowerback 9.39041 -1.0155 1.61063
upperback 0.789013 -1.04047 2.99725
thorax -4.42032 -0.518611 2.34928
lowerneck -15.1413 -2.57452 -2.10234
upperneck 21.8628 -2.9599 -0.441502
head 9.42163 -1.60529 -0.170819
rclavicle -5.05658e-015 -1.03368e-014
rhumerus -32.3748 -25.0948 -74.5214
rradius 21.7279
rwrist 11.1883
rhand -17.6462 23.1772
rfingers 7.12502
rthumb 8.61174 -6.62719
lclavicle -5.05658e-015 -1.03368e-014
lhumerus -26.4098 2.29019 83.5596
lradius 25.1959
lwrist 4.46466
lhand -30.623 18.5515
lfingers 7.12502
lthumb -3.91905 48.4952
rfemur -18.892 3.88299 29.1431
rtibia 33.0419
rfoot -7.00424 -6.01566
rtoes 10.6418
lfemur -4.02438 0.831919 -14.7159
ltibia 65.6843
lfoot 21.2946 -19.2883
ltoes 5.39896
281
root 0.0793052 17.8952 25.3297 -4.61435 1.89599 -4.05851
lowerback 9.48351 -0.882329 1.80124
upperback 0.828254 -0.845327 2.90832
thorax -4.44094 -0.426349 2.12485
lowerneck -15.0812 -2.58381 -2.10634
upperneck 21.847 -3.02243 -0.238877
head 9.40865 -1.61203 -0.107248
rclavicle 3.19298e-015 2.78299e-015
rhumerus -32.1069 -24.3066 -75.1222
rradius 22.199
rwrist 10.3469
rhand -17.4774 22.7736
rfingers 7.12502
rthumb 8.77463 -7.02402
lclavicle 3.19298e-015 2.78299e-015
lhumerus -26.7525 2.58359 83.5808
lradius 25.1093
lwrist 4.05898
lhand -30.0511 13.5731
lfingers 7.12502
lthumb -3.36685 43.5262
rfemur -18.1472 4.21121 29.3106
rtibia 33.1363
rfoot -7.52461 -6.11924
rtoes 10.1697
lfemur -5.17346 1.29065 -14.6588
ltibia 67.21
lfoot 19.0114 -18.4755
ltoes 5.98742
